<?xml version="1.0" standalone="no"?>
<!DOCTYPE svg PUBLIC "-//W3C//DTD SVG 20010904//EN"
 "http://www.w3.org/TR/2001/REC-SVG-20010904/DTD/svg10.dtd">
<svg version="1.0" xmlns="http://www.w3.org/2000/svg"
 width="700.000000pt" height="700.000000pt" viewBox="0 0 700.000000 700.000000"
 preserveAspectRatio="xMidYMid meet">
<metadata>
Created by potrace 1.11, written by Peter Selinger 2001-2013
</metadata>
<g transform="translate(0.000000,700.000000) scale(0.100000,-0.100000)"
fill="#000000" stroke="none">
<path d="M3215 6569 c-66 -4 -142 -10 -170 -14 -27 -4 -61 -9 -75 -10 -28 -4
-73 -12 -110 -21 -14 -3 -38 -8 -55 -11 -123 -22 -400 -119 -544 -191 l-74
-37 1 -590 c0 -324 1 -605 1 -622 l1 -33 42 48 c122 135 258 240 418 324 141
74 316 135 445 154 28 4 57 9 65 11 8 2 69 5 135 7 345 12 678 -110 970 -356
306 -258 510 -635 541 -1003 2 -27 5 -506 5 -1062 l1 -1013 46 33 c70 50 266
241 354 347 231 276 420 642 507 987 11 43 22 90 25 106 3 15 7 35 10 45 2 9
7 37 10 62 3 25 8 55 11 68 21 110 24 445 5 592 -23 181 -90 464 -134 564 -7
17 -28 67 -46 111 -108 271 -313 577 -527 787 -259 256 -556 444 -892 567
-106 39 -299 94 -374 106 -18 3 -54 10 -82 15 -83 15 -124 19 -250 26 -66 3
-124 6 -130 8 -5 1 -64 -1 -130 -5z"/>
<path d="M1790 6023 c-419 -345 -723 -834 -849 -1363 -20 -85 -23 -99 -37
-195 -5 -27 -9 -52 -9 -55 -1 -3 -5 -54 -10 -115 -10 -125 -11 -253 -2 -371 5
-71 10 -109 33 -249 33 -208 153 -546 267 -750 238 -426 560 -744 997 -982
150 -82 426 -188 570 -218 8 -2 44 -10 80 -19 36 -8 83 -17 105 -21 23 -3 51
-7 63 -10 103 -19 432 -27 572 -12 296 31 619 124 865 249 l50 26 0 621 c0
342 -2 621 -5 620 -3 0 -27 -26 -55 -57 -166 -188 -423 -350 -673 -422 -67
-19 -246 -56 -282 -58 -64 -3 -250 -2 -270 2 -14 3 -45 7 -70 10 -49 6 -186
40 -235 58 -231 86 -422 209 -586 377 -109 111 -131 138 -196 235 -123 182
-200 372 -233 576 -19 111 -18 78 -19 1163 -1 554 -4 1007 -8 1006 -5 0 -33
-21 -63 -46z"/>
<path d="M5750 2723 c-43 -76 -166 -263 -179 -273 -4 -3 -20 -23 -36 -46 -52
-71 -127 -155 -231 -259 -149 -148 -248 -230 -416 -343 l-76 -51 -1 -876 0
-875 492 2 492 3 1 1398 c0 768 0 1397 -1 1397 0 0 -21 -35 -45 -77z"/>
<path d="M875 1398 l0 -1393 493 -3 492 -2 0 874 0 875 -102 70 c-114 79 -136
95 -252 196 -244 213 -482 505 -603 743 -9 17 -19 32 -22 32 -4 0 -6 -627 -6
-1392z"/>
</g>
</svg>
