<?xml version="1.0" encoding="UTF-8" standalone="no"?>
<!-- Created with Inkscape (http://www.inkscape.org/) -->

<svg
   xmlns:dc="http://purl.org/dc/elements/1.1/"
   xmlns:cc="http://creativecommons.org/ns#"
   xmlns:rdf="http://www.w3.org/1999/02/22-rdf-syntax-ns#"
   xmlns:svg="http://www.w3.org/2000/svg"
   xmlns="http://www.w3.org/2000/svg"
   xmlns:sodipodi="http://sodipodi.sourceforge.net/DTD/sodipodi-0.dtd"
   xmlns:inkscape="http://www.inkscape.org/namespaces/inkscape"
   width="124.78216mm"
   height="24.060223mm"
   viewBox="0 0 124.78216 24.060224"
   version="1.1"
   id="svg8"
   inkscape:version="0.92+devel unknown"
   sodipodi:docname="logo_white_wide.svg"
   inkscape:export-filename="/home/adam/Documents/ap_branding/logo_wide.svg.png"
   inkscape:export-xdpi="96"
   inkscape:export-ydpi="96">
  <defs
     id="defs2">
    <clipPath
       clipPathUnits="userSpaceOnUse"
       id="clipPath4798">
      <rect
         y="209.85175"
         x="40.333267"
         height="15.108212"
         width="43.21452"
         id="rect4800"
         style="fill:#000000;fill-opacity:1;stroke-width:0.08370889"
         transform="rotate(31.233823)" />
    </clipPath>
  </defs>
  <sodipodi:namedview
     id="base"
     pagecolor="#ffffff"
     bordercolor="#666666"
     borderopacity="1.0"
     inkscape:pageopacity="0.0"
     inkscape:pageshadow="2"
     inkscape:zoom="0.47857968"
     inkscape:cx="276.21262"
     inkscape:cy="44.152618"
     inkscape:document-units="mm"
     inkscape:current-layer="g4929"
     inkscape:document-rotation="0"
     showgrid="false"
     units="mm"
     inkscape:window-width="1920"
     inkscape:window-height="1015"
     inkscape:window-x="0"
     inkscape:window-y="0"
     inkscape:window-maximized="1"
     fit-margin-top="5"
     fit-margin-left="5"
     fit-margin-right="5"
     fit-margin-bottom="5"
     inkscape:pagecheckerboard="true" />
  <metadata
     id="metadata5">
    <rdf:RDF>
      <cc:Work
         rdf:about="">
        <dc:format>image/svg+xml</dc:format>
        <dc:type
           rdf:resource="http://purl.org/dc/dcmitype/StillImage" />
        <dc:title></dc:title>
      </cc:Work>
    </rdf:RDF>
  </metadata>
  <g
     inkscape:label="Layer 1"
     inkscape:groupmode="layer"
     id="layer1"
     transform="translate(137.85388,-153.6577)">
    <g
       id="g4929"
       transform="translate(1.7821934e-6,-0.87534778)">
      <g
         style="fill:#ffffff;fill-opacity:1"
         transform="matrix(0.47292786,0,0,0.47292786,-103.04951,62.135493)"
         id="g4291">
        <path
           id="path4283"
           d="m -58.568405,208.18947 a 11.131227,11.131227 0 0 0 -4.452409,8.88776 11.131227,11.131227 0 0 0 11.131312,11.13112 11.131227,11.131227 0 0 0 5.194639,-1.29425 v -5.6481 a 6.6787356,6.6787356 0 0 1 -5.194639,2.48994 6.6787356,6.6787356 0 0 1 -6.67871,-6.67871 h -1.97e-4 z"
           style="fill:#ffffff;fill-opacity:1;stroke-width:1.41855764"
           inkscape:connector-curvature="0" />
        <path
           style="fill:#ffffff;fill-opacity:1;stroke-width:1.41855764"
           d="m -45.2106,225.96479 a 11.131227,11.131227 0 0 0 4.452411,-8.88776 11.131227,11.131227 0 0 0 -11.131314,-11.13112 11.131227,11.131227 0 0 0 -5.194639,1.29425 v 5.64811 a 6.6787356,6.6787356 0 0 1 5.194639,-2.48995 6.6787356,6.6787356 0 0 1 6.678711,6.67871 h 1.97e-4 z"
           id="path4285"
           inkscape:connector-curvature="0" />
        <path
           inkscape:connector-curvature="0"
           style="fill:#ffffff;fill-opacity:1;stroke-width:5.03106165"
           d="m -154.04688,-129.70703 a 47.679844,47.679844 0 0 1 -16.82812,18.01758 v 29.914059 h 16.82812 z"
           transform="matrix(0.26458333,0,0,0.26458333,0,257.31248)"
           id="path4287" />
        <path
           inkscape:connector-curvature="0"
           style="fill:#ffffff;fill-opacity:1;stroke-width:5.03106213"
           d="m -238.18945,-129.70703 v 47.931639 h 16.82812 v -29.914059 a 47.679844,47.679844 0 0 1 -16.82812,-18.01758 z"
           transform="matrix(0.26458333,0,0,0.26458333,0,257.31248)"
           id="path4289" />
      </g>
      <g
         aria-label="ADAM"
         style="font-style:normal;font-variant:normal;font-weight:bold;font-stretch:normal;font-size:12.78678513px;line-height:1.25;font-family:sans-serif;-inkscape-font-specification:'sans-serif, Bold';font-variant-ligatures:normal;font-variant-caps:normal;font-variant-numeric:normal;font-feature-settings:normal;text-align:start;letter-spacing:0px;word-spacing:0px;writing-mode:lr-tb;text-anchor:start;fill:#ffffff;fill-opacity:1;stroke:none;stroke-width:23.21826744"
         id="text4295">
        <path
           d="m -109.61168,169.52127 h -3.75862 l -0.59314,1.69824 h -2.41625 l 3.45268,-9.32161 h 2.86579 l 3.45268,9.32161 h -2.41625 z m -3.15924,-1.72946 h 2.55361 l -1.27368,-3.70867 z"
           style="font-style:normal;font-variant:normal;font-weight:bold;font-stretch:normal;font-size:12.78678513px;font-family:sans-serif;-inkscape-font-specification:'sans-serif, Bold';font-variant-ligatures:normal;font-variant-caps:normal;font-variant-numeric:normal;font-feature-settings:normal;text-align:start;writing-mode:lr-tb;text-anchor:start;fill:#ffffff;fill-opacity:1;stroke-width:23.21826744"
           id="path5372" />
        <path
           d="m -102.97479,163.71477 v 5.68787 h 0.86161 q 1.47348,0 2.247675,-0.73049 0.780443,-0.7305 0.780443,-2.12281 0,-1.38607 -0.774199,-2.11032 -0.774199,-0.72425 -2.253919,-0.72425 z m -2.40377,-1.81687 h 2.53488 q 2.12281,0 3.159238,0.30593 1.042672,0.29969 1.785654,1.02394 0.655573,0.6306 0.973994,1.45475 0.318421,0.82415 0.318421,1.86682 0,1.05516 -0.318421,1.88555 -0.318421,0.82415 -0.973994,1.45475 -0.749225,0.72425 -1.798141,1.03018 -1.048921,0.29969 -3.146751,0.29969 h -2.53488 z"
           style="font-style:normal;font-variant:normal;font-weight:bold;font-stretch:normal;font-size:12.78678513px;font-family:sans-serif;-inkscape-font-specification:'sans-serif, Bold';font-variant-ligatures:normal;font-variant-caps:normal;font-variant-numeric:normal;font-feature-settings:normal;text-align:start;writing-mode:lr-tb;text-anchor:start;fill:#ffffff;fill-opacity:1;stroke-width:23.21826744"
           id="path5374" />
        <path
           d="m -89.107872,169.52127 h -3.758615 l -0.593137,1.69824 h -2.416253 l 3.452682,-9.32161 h 2.865788 l 3.452682,9.32161 h -2.416253 z m -3.159235,-1.72946 h 2.553611 l -1.273683,-3.70867 z"
           style="font-style:normal;font-variant:normal;font-weight:bold;font-stretch:normal;font-size:12.78678513px;font-family:sans-serif;-inkscape-font-specification:'sans-serif, Bold';font-variant-ligatures:normal;font-variant-caps:normal;font-variant-numeric:normal;font-feature-settings:normal;text-align:start;writing-mode:lr-tb;text-anchor:start;fill:#ffffff;fill-opacity:1;stroke-width:23.21826744"
           id="path5376" />
        <path
           d="m -84.874747,161.8979 h 3.059338 l 2.122806,4.98859 2.135293,-4.98859 h 3.053095 v 9.32161 h -2.272651 v -6.81795 l -2.147781,5.02605 h -1.523425 l -2.147781,-5.02605 v 6.81795 h -2.278894 z"
           style="font-style:normal;font-variant:normal;font-weight:bold;font-stretch:normal;font-size:12.78678513px;font-family:sans-serif;-inkscape-font-specification:'sans-serif, Bold';font-variant-ligatures:normal;font-variant-caps:normal;font-variant-numeric:normal;font-feature-settings:normal;text-align:start;writing-mode:lr-tb;text-anchor:start;fill:#ffffff;fill-opacity:1;stroke-width:23.21826744"
           id="path5378" />
      </g>
      <g
         aria-label="&amp;"
         style="font-style:normal;font-variant:normal;font-weight:bold;font-stretch:normal;font-size:12.78678513px;line-height:1.25;font-family:sans-serif;-inkscape-font-specification:'sans-serif, Bold';font-variant-ligatures:normal;font-variant-caps:normal;font-variant-numeric:normal;font-feature-settings:normal;text-align:start;letter-spacing:0px;word-spacing:0px;writing-mode:lr-tb;text-anchor:start;fill:#ffffff;fill-opacity:1;stroke:none;stroke-width:23.21826744"
         id="text4303">
        <path
           d="m -64.338066,164.8511 2.553611,2.80959 q 0.330908,-0.43705 0.499484,-0.98023 0.174819,-0.54319 0.206037,-1.22998 h 1.941743 q -0.09365,1.13632 -0.443292,2.02291 -0.343395,0.88658 -0.961506,1.55464 l 1.829359,2.01042 h -2.647264 l -0.611867,-0.68054 q -0.655573,0.43704 -1.379824,0.64932 -0.724252,0.21229 -1.535913,0.21229 -1.642053,0 -2.659751,-0.86161 -1.011455,-0.86786 -1.011455,-2.23519 0,-0.91156 0.443292,-1.61084 0.449535,-0.70552 1.46099,-1.36734 -0.262229,-0.3309 -0.3871,-0.66181 -0.124871,-0.33091 -0.124871,-0.69304 0,-1.01769 0.792931,-1.62956 0.79293,-0.61187 2.110319,-0.61187 0.568163,0 1.18003,0.0936 0.618111,0.0874 1.286171,0.26848 v 1.7357 q -0.586893,-0.29969 -1.111351,-0.44329 -0.524458,-0.1436 -1.023942,-0.1436 -0.480753,0 -0.749226,0.1873 -0.262229,0.18107 -0.262229,0.51822 0,0.21228 0.149845,0.487 0.156089,0.26847 0.455779,0.59938 z m -1.242466,1.5484 q -0.40583,0.29344 -0.611867,0.66806 -0.206037,0.36837 -0.206037,0.81166 0,0.71801 0.530701,1.22373 0.530702,0.50573 1.273684,0.50573 0.418317,0 0.780443,-0.12487 0.362126,-0.13112 0.674303,-0.3871 z"
           style="font-style:normal;font-variant:normal;font-weight:bold;font-stretch:normal;font-size:12.78678513px;font-family:sans-serif;-inkscape-font-specification:'sans-serif, Bold';font-variant-ligatures:normal;font-variant-caps:normal;font-variant-numeric:normal;font-feature-settings:normal;text-align:start;writing-mode:lr-tb;text-anchor:start;fill:#ffffff;fill-opacity:1;stroke-width:23.21826744"
           id="path5381" />
      </g>
      <g
         aria-label="PAUL"
         style="font-style:normal;font-variant:normal;font-weight:bold;font-stretch:normal;font-size:12.78678513px;line-height:1.25;font-family:sans-serif;-inkscape-font-specification:'sans-serif, Bold';font-variant-ligatures:normal;font-variant-caps:normal;font-variant-numeric:normal;font-feature-settings:normal;text-align:start;letter-spacing:0px;word-spacing:0px;writing-mode:lr-tb;text-anchor:start;fill:#ffffff;fill-opacity:1;stroke:none;stroke-width:23.21826744"
         id="text4307">
        <path
           d="m -52.767116,161.71684 h 3.989627 q 1.779411,0 2.72843,0.79293 0.955263,0.78668 0.955263,2.24767 0,1.46724 -0.955263,2.26017 -0.949019,0.78668 -2.72843,0.78668 h -1.585861 v 3.23416 h -2.403766 z m 2.403766,1.74195 v 2.60355 h 1.329876 q 0.699277,0 1.080133,-0.33715 0.380857,-0.34339 0.380857,-0.96775 0,-0.62435 -0.380857,-0.9615 -0.380856,-0.33715 -1.080133,-0.33715 z"
           style="font-style:normal;font-variant:normal;font-weight:bold;font-stretch:normal;font-size:12.78678513px;font-family:sans-serif;-inkscape-font-specification:'sans-serif, Bold';font-variant-ligatures:normal;font-variant-caps:normal;font-variant-numeric:normal;font-feature-settings:normal;text-align:start;writing-mode:lr-tb;text-anchor:start;fill:#ffffff;fill-opacity:1;stroke-width:23.21826744"
           id="path5384" />
        <path
           d="m -38.918928,169.34021 h -3.758615 l -0.593137,1.69824 h -2.416253 l 3.452682,-9.32161 h 2.865788 l 3.452682,9.32161 h -2.416253 z m -3.159235,-1.72947 h 2.553611 l -1.273684,-3.70866 z"
           style="font-style:normal;font-variant:normal;font-weight:bold;font-stretch:normal;font-size:12.78678513px;font-family:sans-serif;-inkscape-font-specification:'sans-serif, Bold';font-variant-ligatures:normal;font-variant-caps:normal;font-variant-numeric:normal;font-feature-settings:normal;text-align:start;writing-mode:lr-tb;text-anchor:start;fill:#ffffff;fill-opacity:1;stroke-width:23.21826744"
           id="path5386" />
        <path
           d="m -35.085389,161.71684 h 2.403765 v 5.58797 q 0,1.15506 0.374613,1.65454 0.380857,0.49324 1.236223,0.49324 0.861609,0 1.236222,-0.49324 0.380856,-0.49948 0.380856,-1.65454 v -5.58797 h 2.403766 v 5.58797 q 0,1.97921 -0.992724,2.94696 -0.992724,0.96775 -3.02812,0.96775 -2.029153,0 -3.021877,-0.96775 -0.992724,-0.96775 -0.992724,-2.94696 z"
           style="font-style:normal;font-variant:normal;font-weight:bold;font-stretch:normal;font-size:12.78678513px;font-family:sans-serif;-inkscape-font-specification:'sans-serif, Bold';font-variant-ligatures:normal;font-variant-caps:normal;font-variant-numeric:normal;font-feature-settings:normal;text-align:start;writing-mode:lr-tb;text-anchor:start;fill:#ffffff;fill-opacity:1;stroke-width:23.21826744"
           id="path5388" />
        <path
           d="m -24.696126,161.71684 h 2.403766 v 7.50474 h 4.220638 v 1.81687 h -6.624404 z"
           style="font-style:normal;font-variant:normal;font-weight:bold;font-stretch:normal;font-size:12.78678513px;font-family:sans-serif;-inkscape-font-specification:'sans-serif, Bold';font-variant-ligatures:normal;font-variant-caps:normal;font-variant-numeric:normal;font-feature-settings:normal;text-align:start;writing-mode:lr-tb;text-anchor:start;fill:#ffffff;fill-opacity:1;stroke-width:23.21826744"
           id="path5390" />
      </g>
    </g>
  </g>
</svg>
